<?xml version="1.0" encoding="UTF-8" standalone="no"?>
<!DOCTYPE svg PUBLIC "-//W3C//DTD SVG 1.1//EN" "http://www.w3.org/Graphics/SVG/1.1/DTD/svg11.dtd">
<svg width="100%" height="100%" viewBox="0 0 1742 2000" version="1.1" xmlns="http://www.w3.org/2000/svg" xmlns:xlink="http://www.w3.org/1999/xlink" xml:space="preserve" xmlns:serif="http://www.serif.com/" style="fill-rule:evenodd;clip-rule:evenodd;stroke-linejoin:round;stroke-miterlimit:2;">
    <g transform="matrix(1,0,0,1,-129.245,-2.27374e-13)">
        <g transform="matrix(1,0,0,1,2102.54,0)">
            <g id="Ebene7" transform="matrix(2.60378,0,0,2.60378,-3702.3,-1694.66)">
                <g opacity="0.9">
                    <g transform="matrix(1.25407,0,0,1.25407,-36.0935,-428.783)">
                        <path d="M928.688,1274.35C928.688,1271.89 927.711,1269.53 925.972,1267.79C924.233,1266.05 921.875,1265.08 919.416,1265.08L760.161,1265.08C757.702,1265.08 755.344,1266.05 753.605,1267.79C751.866,1269.53 750.889,1271.89 750.889,1274.35L750.889,1435.14C750.889,1437.6 751.866,1439.96 753.605,1441.7C755.344,1443.44 757.702,1444.41 760.161,1444.41L919.416,1444.41C921.875,1444.41 924.233,1443.44 925.972,1441.7C927.711,1439.96 928.688,1437.6 928.688,1435.14L928.688,1274.35Z" style="fill:rgb(177,45,53);"/>
                    </g>
                    <g transform="matrix(1,0,0,0.774849,0,146.537)">
                        <path d="M1229.9,733.734C1229.9,687.958 1201.15,650.85 1165.68,650.85L795.547,650.85C760.078,650.85 731.325,687.958 731.325,733.734L731.325,1349.16L1229.9,1349.16L1229.9,733.734Z" style="fill:rgb(77,77,77);"/>
                    </g>
                    <g transform="matrix(0.866218,0,0,0.152161,131.189,1118)">
                        <path d="M1229.9,858.749C1229.9,743.93 1213.56,650.85 1193.38,650.85C1101.22,650.85 860.007,650.85 767.844,650.85C747.675,650.85 731.325,743.93 731.325,858.749C731.325,947.983 731.325,1052.02 731.325,1141.26C731.325,1256.08 747.675,1349.16 767.844,1349.16C860.007,1349.16 1101.22,1349.16 1193.38,1349.16C1213.56,1349.16 1229.9,1256.08 1229.9,1141.26L1229.9,858.749Z" style="fill:rgb(77,77,77);"/>
                    </g>
                    <g transform="matrix(0.944994,0,0,1.23698,53.5322,-216.03)">
                        <path d="M1278.54,803.365C1278.54,799.019 1276.28,794.85 1272.26,791.777C1268.24,788.703 1262.78,786.977 1257.09,786.977L1058.02,786.977C1052.28,786.977 1046.78,788.719 1042.72,791.819C1038.66,794.92 1036.38,799.125 1036.38,803.51L1036.38,895.082C1036.38,899.467 1038.66,903.672 1042.72,906.773C1046.78,909.873 1052.28,911.615 1058.02,911.615L1257.09,911.615C1262.78,911.615 1268.24,909.889 1272.26,906.815C1276.28,903.742 1278.54,899.573 1278.54,895.227L1278.54,803.365Z" style="fill:rgb(230,230,230);"/>
                    </g>
                    <g transform="matrix(0.956844,0,0,1,57.5219,0)">
                        <path d="M1332.88,1112.53C1332.88,1104.24 1325.85,1097.52 1317.19,1097.52L649.558,1097.52C640.893,1097.52 633.87,1104.24 633.87,1112.53L633.87,1244.48C633.87,1252.77 640.893,1259.49 649.558,1259.49L1317.19,1259.49C1325.85,1259.49 1332.88,1252.77 1332.88,1244.48L1332.88,1112.53Z" style="fill:rgb(153,153,153);"/>
                    </g>
                    <g transform="matrix(0.992273,0,0,0.947332,25.4176,40.2411)">
                        <path d="M980.615,895.882C980.615,889.377 975.581,884.104 969.37,884.104L831.468,884.104C825.258,884.104 820.224,889.377 820.224,895.882L820.224,1040.34C820.224,1046.85 825.258,1052.12 831.468,1052.12L969.37,1052.12C975.581,1052.12 980.615,1046.85 980.615,1040.34L980.615,895.882Z" style="fill:rgb(38,38,38);"/>
                    </g>
                    <g transform="matrix(1,0,0,1,40.6848,-0.775871)">
                        <path d="M888.9,954.409C888.9,944.889 881.182,937.172 871.663,937.172L784.421,937.172C774.901,937.172 767.184,944.889 767.184,954.409L767.184,1242.25C767.184,1251.77 774.901,1259.49 784.421,1259.49L871.663,1259.49C881.182,1259.49 888.9,1251.77 888.9,1242.25L888.9,954.409Z" style="fill:rgb(51,51,51);"/>
                    </g>
                    <g transform="matrix(1.25407,0,0,1.25407,-184.426,-392.435)">
                        <path d="M928.688,1274.35C928.688,1271.89 927.711,1269.53 925.972,1267.79C924.233,1266.05 921.875,1265.08 919.416,1265.08L760.161,1265.08C757.702,1265.08 755.344,1266.05 753.605,1267.79C751.866,1269.53 750.889,1271.89 750.889,1274.35L750.889,1435.14C750.889,1437.6 751.866,1439.96 753.605,1441.7C755.344,1443.44 757.702,1444.41 760.161,1444.41L919.416,1444.41C921.875,1444.41 924.233,1443.44 925.972,1441.7C927.711,1439.96 928.688,1437.6 928.688,1435.14L928.688,1274.35Z" style="fill:rgb(227,59,59);"/>
                    </g>
                </g>
            </g>
        </g>
    </g>
</svg>
